<svg id="Layer_3" data-name="Layer 3" xmlns="http://www.w3.org/2000/svg" xmlns:xlink="http://www.w3.org/1999/xlink" viewBox="0 0 725.3 294.3"><desc>New black and white registered Ionis logo for web - Vector version</desc>
<metadata><?xpacket begin="﻿" id="W5M0MpCehiHzreSzNTczkc9d"?>
<x:xmpmeta xmlns:x="adobe:ns:meta/" x:xmptk="Adobe XMP Core 6.0-c006 79.164648, 2021/01/12-15:52:29        ">
   <rdf:RDF xmlns:rdf="http://www.w3.org/1999/02/22-rdf-syntax-ns#">
      <rdf:Description rdf:about=""
            xmlns:dc="http://purl.org/dc/elements/1.1/"
            xmlns:xmp="http://ns.adobe.com/xap/1.0/"
            xmlns:xmpMM="http://ns.adobe.com/xap/1.0/mm/"
            xmlns:stEvt="http://ns.adobe.com/xap/1.0/sType/ResourceEvent#"
            xmlns:xmpRights="http://ns.adobe.com/xap/1.0/rights/">
         <dc:description>
            <rdf:Alt>
               <rdf:li xml:lang="x-default">New black and white registered Ionis logo for web - Vector version</rdf:li>
            </rdf:Alt>
         </dc:description>
         <dc:subject>
            <rdf:Bag>
               <rdf:li>registered Ionis logo</rdf:li>
               <rdf:li>web</rdf:li>
               <rdf:li>black and white</rdf:li>
               <rdf:li>bw</rdf:li>
               <rdf:li>vector</rdf:li>
               <rdf:li>svg</rdf:li>
            </rdf:Bag>
         </dc:subject>
         <xmp:MetadataDate>2021-08-04T16:44:20-07:00</xmp:MetadataDate>
         <xmpMM:InstanceID>xmp.iid:d7da0a74-d737-f84d-9a39-ad28231052f2</xmpMM:InstanceID>
         <xmpMM:DocumentID>xmp.did:6be45285-7fa7-fa41-80a3-2145b5b48a5d</xmpMM:DocumentID>
         <xmpMM:OriginalDocumentID>xmp.did:6be45285-7fa7-fa41-80a3-2145b5b48a5d</xmpMM:OriginalDocumentID>
         <xmpMM:History>
            <rdf:Seq>
               <rdf:li>
                  <rdf:Description>
                     <stEvt:action>saved</stEvt:action>
                     <stEvt:instanceID>xmp.iid:6be45285-7fa7-fa41-80a3-2145b5b48a5d</stEvt:instanceID>
                     <stEvt:when>2021-08-04T16:32:54-07:00</stEvt:when>
                     <stEvt:softwareAgent>Adobe Bridge 2021 (Windows)</stEvt:softwareAgent>
                     <stEvt:changed>/metadata</stEvt:changed>
                  </rdf:Description>
               </rdf:li>
               <rdf:li>
                  <rdf:Description>
                     <stEvt:action>saved</stEvt:action>
                     <stEvt:instanceID>xmp.iid:d7da0a74-d737-f84d-9a39-ad28231052f2</stEvt:instanceID>
                     <stEvt:when>2021-08-04T16:44:20-07:00</stEvt:when>
                     <stEvt:softwareAgent>Adobe Bridge 2021 (Windows)</stEvt:softwareAgent>
                     <stEvt:changed>/metadata</stEvt:changed>
                  </rdf:Description>
               </rdf:li>
            </rdf:Seq>
         </xmpMM:History>
         <xmpRights:UsageTerms>
            <rdf:Alt>
               <rdf:li xml:lang="x-default">Unrestricted</rdf:li>
            </rdf:Alt>
         </xmpRights:UsageTerms>
      </rdf:Description>
   </rdf:RDF>
</x:xmpmeta>
                                                                                                    
                                                                                                    
                                                                                                    
                                                                                                    
                                                                                                    
                                                                                                    
                                                                                                    
                                                                                                    
                                                                                                    
                                                                                                    
                                                                                                    
                                                                                                    
                                                                                      
<?xpacket end="w"?></metadata>
<defs><style>.cls-1{fill:#999;}.cls-2{fill:url(#linear-gradient);}.cls-3{fill:url(#linear-gradient-2);}</style><linearGradient id="linear-gradient" x1="400.88" y1="89.13" x2="454.77" y2="89.13" gradientUnits="userSpaceOnUse"><stop offset="0" stop-color="#999"/><stop offset="0.7" stop-color="#4c4c4c"/></linearGradient><linearGradient id="linear-gradient-2" x1="193.93" y1="280.82" x2="255.79" y2="280.82" gradientTransform="matrix(1, -0.02, 0.02, 1, 200.57, -214.43)" gradientUnits="userSpaceOnUse"><stop offset="0.3" stop-color="#4c4c4c"/><stop offset="1"/></linearGradient></defs><rect x="73.72" y="74" width="36.87" height="146.61"/><path d="M208.2,71c43.39,0,75.93,32.05,75.93,74.8s-32.54,74.8-75.93,74.8-75.92-32.06-75.92-74.8S164.82,71,208.2,71m0,36.33c-23,0-39,15.81-39,38.47s16.05,38.47,39,38.47,39.05-15.82,39.05-38.47-16.05-38.47-39.05-38.47"/><path class="cls-1" d="M400.88,145.31l32.74-29.55c8.64-7.49,13.59-17.28,13.59-28.62V87l-46.33,41.08Z"/><path class="cls-2" d="M400.88,121.94,441,86.12a39.36,39.36,0,0,0,13.74-29.81l-53.89,47.41Z"/><path class="cls-3" d="M461.32,26.25l-60.44,52.8V97.27L447.55,56A39.22,39.22,0,0,0,461.32,26.25Z"/><polygon points="400.64 151.5 339.22 74.36 338.98 74.04 338.97 74.04 338.95 74.02 338.93 74.04 305.82 74.04 305.82 220.61 342.69 220.61 342.69 137.59 408.7 220.61 439.29 220.61 439.29 117.32 400.64 151.5"/><rect x="469.65" y="73.99" width="36.88" height="146.61"/><path d="M525.39,198l23-27.07c14.9,11.54,31.09,17.63,48.34,17.63,11.29,0,18.26-3.78,18.26-10.08v-.41c0-6.3-5.91-9.45-26.35-14.27-31.74-7.14-56.23-16-56.23-46v-.42c0-27.28,21.94-47,57.72-47,25.34,0,45.15,6.71,61.33,19.51l-20.66,28.75c-13.63-9.66-28.53-14.48-41.74-14.48-10,0-15.92,4-15.92,9.44v.42c0,6.71,6.14,9.59,27,14.27,33.68,7.54,55.37,19.91,55.37,45.74v.42c0,30-24.07,47.84-60.27,47.84C568.84,222.37,543.92,214.19,525.39,198Z"/><path d="M661.17,74.78h4a3.72,3.72,0,0,1,2.66.92,2.52,2.52,0,0,1,.72,1.81v0A2.71,2.71,0,0,1,666,80.22L668.89,84H667.6l-2.71-3.58h-2.67V84h-1.05Zm3.92,4.69c1.4,0,2.4-.71,2.4-1.89v0c0-1.13-.88-1.81-2.39-1.81h-2.88v3.73Z"/><path d="M664.67,88.29a8.92,8.92,0,1,1,9.05-8.92A9,9,0,0,1,664.67,88.29Zm0-16.9a8,8,0,1,0,8.09,8A8,8,0,0,0,664.67,71.39Z"/></svg>