<?xml version="1.0" encoding="utf-8"?>
<!-- Generator: Adobe Illustrator 24.3.1, SVG Export Plug-In . SVG Version: 6.00 Build 0)  -->
<svg version="1.1" xmlns="http://www.w3.org/2000/svg" xmlns:xlink="http://www.w3.org/1999/xlink" x="0px" y="0px"
	 viewBox="0 0 600 196.12" style="enable-background:new 0 0 600 196.12;" xml:space="preserve">
<desc>New grayscale registered Ionis logo - Vector version.</desc>
<metadata><?xpacket begin="﻿" id="W5M0MpCehiHzreSzNTczkc9d"?>
<x:xmpmeta xmlns:x="adobe:ns:meta/" x:xmptk="Adobe XMP Core 6.0-c006 79.164648, 2021/01/12-15:52:29        ">
   <rdf:RDF xmlns:rdf="http://www.w3.org/1999/02/22-rdf-syntax-ns#">
      <rdf:Description rdf:about=""
            xmlns:dc="http://purl.org/dc/elements/1.1/"
            xmlns:xmp="http://ns.adobe.com/xap/1.0/"
            xmlns:xmpMM="http://ns.adobe.com/xap/1.0/mm/"
            xmlns:stEvt="http://ns.adobe.com/xap/1.0/sType/ResourceEvent#"
            xmlns:xmpRights="http://ns.adobe.com/xap/1.0/rights/">
         <dc:description>
            <rdf:Alt>
               <rdf:li xml:lang="x-default">New grayscale registered Ionis logo - Vector version.</rdf:li>
            </rdf:Alt>
         </dc:description>
         <dc:subject>
            <rdf:Bag>
               <rdf:li>registered Ionis logo</rdf:li>
               <rdf:li>grayscale</rdf:li>
               <rdf:li>black and white</rdf:li>
               <rdf:li>SVG</rdf:li>
            </rdf:Bag>
         </dc:subject>
         <xmp:MetadataDate>2021-08-04T17:02:30-07:00</xmp:MetadataDate>
         <xmpMM:InstanceID>xmp.iid:a07da359-105f-bc4a-a44a-6c3cea55492c</xmpMM:InstanceID>
         <xmpMM:DocumentID>xmp.did:08f75ef7-0dc2-bf44-bbb8-42330c6ef86d</xmpMM:DocumentID>
         <xmpMM:OriginalDocumentID>xmp.did:08f75ef7-0dc2-bf44-bbb8-42330c6ef86d</xmpMM:OriginalDocumentID>
         <xmpMM:History>
            <rdf:Seq>
               <rdf:li>
                  <rdf:Description>
                     <stEvt:action>saved</stEvt:action>
                     <stEvt:instanceID>xmp.iid:08f75ef7-0dc2-bf44-bbb8-42330c6ef86d</stEvt:instanceID>
                     <stEvt:when>2021-08-04T17:01:58-07:00</stEvt:when>
                     <stEvt:softwareAgent>Adobe Bridge 2021 (Windows)</stEvt:softwareAgent>
                     <stEvt:changed>/metadata</stEvt:changed>
                  </rdf:Description>
               </rdf:li>
               <rdf:li>
                  <rdf:Description>
                     <stEvt:action>saved</stEvt:action>
                     <stEvt:instanceID>xmp.iid:a07da359-105f-bc4a-a44a-6c3cea55492c</stEvt:instanceID>
                     <stEvt:when>2021-08-04T17:02:30-07:00</stEvt:when>
                     <stEvt:softwareAgent>Adobe Bridge 2021 (Windows)</stEvt:softwareAgent>
                     <stEvt:changed>/metadata</stEvt:changed>
                  </rdf:Description>
               </rdf:li>
            </rdf:Seq>
         </xmpMM:History>
         <xmpRights:UsageTerms>
            <rdf:Alt>
               <rdf:li xml:lang="x-default">Unrestricted</rdf:li>
            </rdf:Alt>
         </xmpRights:UsageTerms>
      </rdf:Description>
   </rdf:RDF>
</x:xmpmeta>
                                                                                                    
                                                                                                    
                                                                                                    
                                                                                                    
                                                                                                    
                                                                                                    
                                                                                                    
                                                                                                    
                                                                                                    
                                                                                                    
                  
<?xpacket end="w"?></metadata>
<style type="text/css">
	.st0{fill:#999999;}
	.st1{fill:url(#SVGID_1_);}
	.st2{fill:url(#SVGID_2_);}
	.st3{display:none;}
</style>
<g id="Logo">
	<g>
		<rect y="47.75" width="36.87" height="146.61"/>
		<path d="M134.49,44.75c43.38,0,75.92,32.06,75.92,74.8c0,42.74-32.54,74.8-75.92,74.8c-43.39,0-75.92-32.06-75.92-74.8
			C58.56,76.81,91.1,44.75,134.49,44.75 M134.49,81.08c-23,0-39.05,15.82-39.05,38.47c0,22.65,16.05,38.47,39.05,38.47
			c22.99,0,39.05-15.82,39.05-38.47C173.54,96.9,157.48,81.08,134.49,81.08"/>
		<g>
			<path class="st0" d="M327.16,119.05l32.74-29.55c8.64-7.49,13.59-17.28,13.59-28.62v-0.14l-46.34,41.09V119.05z"/>
			<linearGradient id="SVGID_1_" gradientUnits="userSpaceOnUse" x1="327.1621" y1="62.8718" x2="381.0499" y2="62.8718">
				<stop  offset="0" style="stop-color:#999999"/>
				<stop  offset="0.7" style="stop-color:#4C4C4C"/>
			</linearGradient>
			<path class="st1" d="M327.16,95.69l40.15-35.82c8.73-7.52,13.73-18.39,13.73-29.82l-53.89,47.41V95.69z"/>
			
				<linearGradient id="SVGID_2_" gradientUnits="userSpaceOnUse" x1="120.2131" y1="254.5665" x2="182.0758" y2="254.5664" gradientTransform="matrix(0.9999 -0.0204 0.0203 0.9998 201.0939 -215.9402)">
				<stop  offset="0.3" style="stop-color:#4C4C4C"/>
				<stop  offset="1" style="stop-color:#000000"/>
			</linearGradient>
			<path class="st2" d="M387.6,0l-60.44,52.79v18.22l46.67-41.24C382.58,22.28,387.6,11.42,387.6,0z"/>
		</g>
		<polygon points="326.92,125.24 265.51,48.11 265.26,47.79 265.25,47.79 265.23,47.77 265.21,47.79 232.1,47.79 232.1,194.35 
			268.98,194.35 268.98,111.34 334.98,194.35 365.57,194.35 365.57,91.07 		"/>
		<g>
			<rect x="395.94" y="47.74" width="36.88" height="146.61"/>
			<g>
				<path d="M451.68,171.78l23-27.07c14.91,11.54,31.09,17.62,48.34,17.62c11.29,0,18.27-3.78,18.27-10.07v-0.42
					c0-6.3-5.91-9.44-26.36-14.27c-31.73-7.14-56.22-15.95-56.22-45.95V91.2c0-27.28,21.94-47,57.71-47
					c25.34,0,45.15,6.71,61.34,19.51L557.1,92.46c-13.63-9.65-28.54-14.48-41.74-14.48c-10.01,0-15.92,3.99-15.92,9.44v0.42
					c0,6.71,6.14,9.59,27,14.27c33.68,7.55,55.37,19.91,55.37,45.74v0.42c0,30.01-24.07,47.84-60.27,47.84
					C495.13,196.12,470.21,187.93,451.68,171.78z"/>
			</g>
		</g>
		<g>
			<g>
				<path d="M587.45,48.52h4.02c1.15,0,2.07,0.34,2.66,0.92c0.45,0.45,0.72,1.09,0.72,1.81v0.03c0,1.53-1.07,2.42-2.54,2.68
					l2.87,3.76h-1.29l-2.71-3.58h-2.67v3.58h-1.05V48.52z M591.38,53.22c1.4,0,2.4-0.71,2.4-1.89V51.3c0-1.13-0.88-1.81-2.39-1.81
					h-2.88v3.73H591.38z"/>
			</g>
			<path d="M590.95,62.03c-4.99,0-9.05-4-9.05-8.92s4.06-8.92,9.05-8.92s9.05,4,9.05,8.92S595.94,62.03,590.95,62.03z M590.95,45.14
				c-4.46,0-8.1,3.58-8.1,7.98s3.63,7.98,8.1,7.98s8.1-3.58,8.1-7.98S595.42,45.14,590.95,45.14z"/>
		</g>
	</g>
</g>
<g id="Guides" class="st3">
</g>
</svg>
